<svg xmlns="http://www.w3.org/2000/svg" xmlns:xlink="http://www.w3.org/1999/xlink" version="1.1" x="0px" y="0px"
     viewBox="0 0 16 16" xml:space="preserve">
<style type="text/css">
	.st0{fill:#E6E6E6;}
	.st1{fill:none;stroke:#808080;stroke-width:0.25;stroke-miterlimit:10;}
	.st2{fill:none;stroke:#000000;stroke-width:0.5;stroke-linejoin:round;stroke-miterlimit:10;}
	.st3{fill:none;stroke:#000000;stroke-width:0.5;stroke-miterlimit:10;}
	.st4{fill:#FFFFFF;}
	.st5{display:none;}
	.st6{display:inline;}
	.st7{fill:#FF7BAC;}
</style>
    <g id="Layer_1">
	<g>
		<g>
			<path class="st0" d="M-2491,489v30h-30v-30H-2491 M-2490,488h-32v32h32V488L-2490,488z"/>
		</g>
        <g>
			<path class="st0" d="M-2491,553v30h-30v-30H-2491 M-2490,552h-32v32h32V552L-2490,552z"/>
		</g>
        <g>
			<path class="st0" d="M-2523,521v30h-30v-30H-2523 M-2522,520h-32v32h32V520L-2522,520z"/>
		</g>
        <g>
			<path class="st0" d="M-2459,521v30h-30v-30H-2459 M-2458,520h-32v32h32V520L-2458,520z"/>
		</g>
	</g>
        <g>
		<g>
			<path class="st0" d="M-2496,237v20h-20v-20H-2496 M-2495,236h-22v22h22V236L-2495,236z"/>
		</g>
            <g>
			<path class="st0" d="M-2518,237v20h-28v-20H-2518 M-2517,236h-30v22h30V236L-2517,236z"/>
		</g>
            <g>
			<path class="st0" d="M-2466,237v20h-28v-20H-2466 M-2465,236h-30v22h30V236L-2465,236z"/>
		</g>
            <g>
			<path class="st0" d="M-2496,259v28h-20v-28H-2496 M-2495,258h-22v30h22V258L-2495,258z"/>
		</g>
            <g>
			<path class="st0" d="M-2496,207v28h-20v-28H-2496 M-2495,206h-22v30h22V206L-2495,206z"/>
		</g>
	</g>
        <g>
		<rect x="-2688" y="231" transform="matrix(4.903018e-11 -1 1 4.903018e-11 -2924 -2430)" class="st1" width="22"
              height="32"/>
            <rect x="-2634" y="231" transform="matrix(4.903018e-11 -1 1 4.903018e-11 -2870 -2376)" class="st1"
                  width="22" height="32"/>
            <rect x="-2661" y="258" transform="matrix(-1 -9.392633e-11 9.392633e-11 -1 -5300 548)" class="st1"
                  width="22" height="32"/>
            <rect x="-2661" y="204" transform="matrix(-1 -9.392633e-11 9.392633e-11 -1 -5300 440)" class="st1"
                  width="22" height="32"/>
	</g>
        <g>
		<rect x="-2689" y="520" transform="matrix(-1 -9.384328e-11 9.384328e-11 -1 -5356 1072)" class="st1" width="22"
              height="32"/>
            <rect x="-2694" y="520" transform="matrix(-1.387390e-10 1 -1 -1.387390e-10 -2147 3219)" class="st1"
                  width="22" height="32"/>
            <rect x="-2630" y="520" transform="matrix(-1.387390e-10 1 -1 -1.387390e-10 -2083 3155)" class="st1"
                  width="22" height="32"/>
            <rect x="-2662" y="552" class="st1" width="22" height="32"/>
            <rect x="-2662" y="488" class="st1" width="22" height="32"/>
            <rect x="-2635" y="520" transform="matrix(-1 -9.384328e-11 9.384328e-11 -1 -5248 1072)" class="st1"
                  width="22" height="32"/>
            <rect x="-2662" y="547" transform="matrix(-1.387390e-10 1 -1 -1.387390e-10 -2088 3214)" class="st1"
                  width="22" height="32"/>
            <rect x="-2662" y="493" transform="matrix(-1.387390e-10 1 -1 -1.387390e-10 -2142 3160)" class="st1"
                  width="22" height="32"/>
	</g>
        <polygon class="st2"
                 points="-2639,258 -2607,247 -2639,236 -2650,204 -2661,236 -2693,247 -2661,258 -2650,290  "/>
        <polygon class="st2" points="-2693,247 -2639,236 -2650,290 -2661,258  "/>
        <g>
		<path d="M-2506,206.5c0.1,0,0.3,0,0.4,0.3l10.1,29.3l0.1,0.2l0.2,0.1l29.3,10.1c0.3,0.1,0.3,0.4,0.3,0.4s0,0.3-0.3,0.4l-29.3,10.1    l-0.2,0.1l-0.1,0.2l-10.1,29.3c-0.1,0.3-0.4,0.3-0.4,0.3s-0.3,0-0.4-0.3l-10.1-29.3l-0.1-0.2l-0.2-0.1l-29.3-10.1    c-0.3-0.1-0.3-0.4-0.3-0.4s0-0.3,0.3-0.4l29.3-10.1l0.2-0.1l0.1-0.2l10.1-29.3C-2506.3,206.5-2506.1,206.5-2506,206.5 M-2506,206    c-0.4,0-0.8,0.2-0.9,0.7L-2517,236l-29.3,10.1c-0.9,0.3-0.9,1.5,0,1.8l29.3,10.1l10.1,29.3c0.1,0.4,0.5,0.7,0.9,0.7    s0.8-0.2,0.9-0.7l10.1-29.3l29.3-10.1c0.9-0.3,0.9-1.5,0-1.8L-2495,236l-10.1-29.3C-2505.2,206.2-2505.6,206-2506,206L-2506,206z"/>
	</g>
        <polygon class="st3" points="-2530.5,247 -2512.3,253.3 -2506,271.5 -2499.7,240.7  "/>
        <g>
		<g>
			<path d="M-2351,258l29.3-10.1c0.9-0.3,0.9-1.5,0-1.8L-2351,236l-10.1-29.3c-0.3-0.9-1.5-0.9-1.8,0L-2373,236l-29.3,10.1     c-0.9,0.3-0.9,1.5,0,1.8l29.3,10.1l10.1,29.3c0.3,0.9,1.5,0.9,1.8,0L-2351,258z"/>
		</g>
            <polygon class="st4" points="-2386,247 -2356,241 -2362,271 -2368,253   "/>
	</g>
        <polygon class="st2"
                 points="-2667,552 -2651,584 -2635,552 -2603,536 -2635,520 -2651,488 -2667,520 -2699,536  "/>
        <polygon class="st2" points="-2699,536 -2635,520 -2651,584 -2667,552  "/>
        <g>
		<path d="M-2506,488.5c0.4,0,0.7,0.2,0.9,0.6l14.7,31.1l0.1,0.2l0.2,0.1l31.1,14.7c0.4,0.2,0.6,0.5,0.6,0.9s-0.2,0.7-0.6,0.9    l-31.1,14.7l-0.2,0.1l-0.1,0.2l-14.7,31.1c-0.2,0.4-0.5,0.6-0.9,0.6s-0.7-0.2-0.9-0.6l-14.7-31.1l-0.1-0.2l-0.2-0.1l-31.1-14.7    c-0.4-0.2-0.6-0.5-0.6-0.9s0.2-0.7,0.6-0.9l31.1-14.7l0.2-0.1l0.1-0.2l14.7-31.1C-2506.7,488.7-2506.4,488.5-2506,488.5     M-2506,488c-0.5,0-1.1,0.3-1.3,0.9L-2522,520l-31.1,14.7c-1.1,0.5-1.1,2.2,0,2.7l31.1,14.7l14.7,31.1c0.3,0.6,0.8,0.9,1.3,0.9    s1.1-0.3,1.3-0.9l14.7-31.1l31.1-14.7c1.1-0.5,1.1-2.2,0-2.7L-2490,520l-14.7-31.1C-2504.9,488.3-2505.5,488-2506,488L-2506,488z"/>
	</g>
        <polygon class="st3" points="-2494.5,524.5 -2540.6,536 -2517.5,547.5 -2506,570.6  "/>
        <g>
		<g>
			<path d="M-2363.3,488.9L-2378,520l-31.1,14.7c-1.1,0.5-1.1,2.2,0,2.7l31.1,14.7l14.7,31.1c0.5,1.1,2.2,1.1,2.7,0l14.7-31.1     l31.1-14.7c1.1-0.5,1.1-2.2,0-2.7L-2346,520l-14.7-31.1C-2361.2,487.7-2362.8,487.7-2363.3,488.9z"/>
		</g>
            <polygon class="st4" points="-2351,525 -2397,536 -2373.5,547.5 -2362,571   "/>
	</g>
        <g>
		<g>
			<path d="M-1908,268l58.7-20.2c1.7-0.6,1.7-3.1,0-3.7L-1908,224l-20.2-58.7c-0.6-1.7-3.1-1.7-3.7,0L-1952,224l-58.7,20.2     c-1.7,0.6-1.7,3.1,0,3.7l58.7,20.2l20.2,58.7c0.6,1.7,3.1,1.7,3.7,0L-1908,268z"/>
		</g>
            <polygon class="st4" points="-1978,246 -1918,234 -1930,294 -1942,258   "/>
	</g>
        <g>
		<g>
			<path d="M-1932.7,440.7L-1962,503l-62.3,29.3c-2.3,1.1-2.3,4.3,0,5.4l62.3,29.3l29.3,62.3c1.1,2.3,4.3,2.3,5.4,0l29.3-62.3     l62.3-29.3c2.3-1.1,2.3-4.3,0-5.4L-1898,503l-29.3-62.3C-1928.4,438.4-1931.6,438.4-1932.7,440.7z"/>
		</g>
            <polygon class="st4" points="-1908,513 -2000,535 -1953.1,558.1 -1930,605   "/>
	</g>
        <rect x="-2721.2" y="72.4" style="fill:none;" width="410.5" height="37"/>
        <text transform="matrix(1 0 0 1 -2721.2332 103.8086)"
              style="font-family:'SlateStd-Bold'; font-size:48px; letter-spacing:2;">The Frontier</text>
        <g>
		<g>
			<path class="st0" d="M-1219,313v30h-30v-30H-1219 M-1218,312h-32v32h32V312L-1218,312z"/>
		</g>
            <g>
			<path class="st0" d="M-1219,377v30h-30v-30H-1219 M-1218,376h-32v32h32V376L-1218,376z"/>
		</g>
            <g>
			<path class="st0" d="M-1251,345v30h-30v-30H-1251 M-1250,344h-32v32h32V344L-1250,344z"/>
		</g>
            <g>
			<path class="st0" d="M-1187,345v30h-30v-30H-1187 M-1186,344h-32v32h32V344L-1186,344z"/>
		</g>
	</g>
        <rect x="-1281.2" y="72.4" style="fill:none;" width="410.5" height="37"/>
        <text transform="matrix(1 0 0 1 -1281.2332 103.8086)"
              style="font-family:'SlateStd-Bold'; font-size:48px; letter-spacing:2;">The Frontier</text>
        <rect x="-1281.2" y="138.4" style="fill:none;" width="410.5" height="37"/>
        <text transform="matrix(1 0 0 1 -1281.2332 154.1367)" style="font-family:'Slate-Medium'; font-size:24px;">Logo | 1.0</text>
        <rect x="-1114" y="289" style="fill:none;" width="97" height="16"/>
        <text transform="matrix(1 0 0 1 -1114 294.2402)" style="font-family:'Slate-Medium'; font-size:8px;">Pixel-Aligned</text>
        <rect x="-1282" y="289" style="fill:none;" width="97" height="16"/>
        <text transform="matrix(1 0 0 1 -1282 294.2402)" style="font-family:'Slate-Medium'; font-size:8px;">Geometrically Sound</text>
        <g class="st5">
		<g class="st6">
			<path class="st7" d="M-907,345v30h-30v-30H-907 M-906,344h-1h-30h-1v1v30v1h1h30h1v-1v-30V344L-906,344z"/>
		</g>
            <g class="st6">
			<path class="st7" d="M-937,345v30h-37v-30H-937 M-936,344h-1h-37h-1v1v30v1h1h37h1v-1v-30V344L-936,344z"/>
		</g>
            <g class="st6">
			<path class="st7" d="M-907,351v18h-51v-18H-907 M-906,350h-1h-51h-1v1v18v1h1h51h1v-1v-18V350L-906,350z"/>
		</g>
            <g class="st6">
			<path class="st7" d="M-913,345v51h-18v-51H-913 M-912,344h-1h-18h-1v1v51v1h1h18h1v-1v-51V344L-912,344z"/>
		</g>
            <g class="st6">
			<path class="st7" d="M-870,345v30h-37v-30H-870 M-869,344h-1h-37h-1v1v30v1h1h37h1v-1v-30V344L-869,344z"/>
		</g>
            <g class="st6">
			<path class="st7" d="M-907,308v37h-30v-37H-907 M-906,307h-1h-30h-1v1v37v1h1h30h1v-1v-37V307L-906,307z"/>
		</g>
            <g class="st6">
			<path class="st7" d="M-907,375v37h-30v-37H-907 M-906,374h-1h-30h-1v1v37v1h1h30h1v-1v-37V374L-906,374z"/>
		</g>
	</g>
        <g>
		<g>
			<g>
				<path d="M-1068.2,314.5L-1081,346l-31.5,12.8c-2,0.8-2,3.7,0,4.5l31.5,12.8l12.8,31.5c0.8,2,3.7,2,4.5,0l12.8-31.5l31.5-12.8      c2-0.8,2-3.7,0-4.5L-1051,346l-12.8-31.5C-1064.6,312.5-1067.4,312.5-1068.2,314.5z"/>
			</g>
		</g>
            <polygon class="st4" points="-1103,361 -1076,371 -1066,398 -1056,351   "/>
	</g>
        <g>
		<g>
			<g>
				<path d="M-498.9,175L-550,301l-126,51.1c-8,3.3-8,14.6,0,17.9l126,51.1l51.1,126c3.3,8,14.6,8,17.9,0l51.1-126l126-51.1      c8-3.3,8-14.6,0-17.9L-430,301l-51.1-126C-484.3,167-495.7,167-498.9,175z"/>
			</g>
		</g>
            <polygon class="st4" points="-638,361 -530,401 -490,509 -450,321   "/>
	</g>
        <g>
		<g>
			<path d="M-1236.2,313.5L-1249,345l-31.5,12.8c-2,0.8-2,3.7,0,4.5l31.5,12.8l12.8,31.5c0.8,2,3.7,2,4.5,0l12.8-31.5l31.5-12.8     c2-0.8,2-3.7,0-4.5L-1219,345l-12.8-31.5C-1232.6,311.5-1235.4,311.5-1236.2,313.5z"/>
		</g>
	</g>
        <polygon class="st4" points="-1270,360 -1244.4,370.4 -1234,396 -1223.6,349.6  "/>
</g>
    <g id="Layer_2">
	<g>
		<g>
			<g>
				<path d="M7.6,0.3L5.5,5.5L0.3,7.6c-0.3,0.1-0.3,0.6,0,0.7l5.2,2.1l2.1,5.2c0.1,0.3,0.6,0.3,0.7,0l2.1-5.2l5.2-2.1      c0.3-0.1,0.3-0.6,0-0.7l-5.2-2.1L8.4,0.3C8.2-0.1,7.8-0.1,7.6,0.3z"/>
			</g>
		</g>
        <polygon class="st4" points="1.8,8 6.3,9.7 8,14.2 9.7,6.3   "/>
	</g>
</g>
</svg>